<svg xmlns="http://www.w3.org/2000/svg" xmlns:xlink="http://www.w3.org/1999/xlink" xmlns:lucid="lucid" width="1262" height="698"><g transform="translate(-319 -239)" lucid:page-tab-id="HWEp-vi-RSFO"><path d="M340 268a8 8 0 0 1 8-8h324a8 8 0 0 1 8 8v472a8 8 0 0 1-8 8H348a8 8 0 0 1-8-8z" fill="#e3fae3"/><path d="M340 268a8 8 0 0 1 8-8h324a8 8 0 0 1 8 8v472a8 8 0 0 1-8 8H348a8 8 0 0 1-8-8zM340 300h340M512.63 300v448" stroke="#008a0e" stroke-width="2" fill="none"/><use xlink:href="#a" transform="matrix(1,0,0,1,350,260) translate(106.05 23.6)"/><use xlink:href="#b" transform="matrix(1,0,0,1,345,302.5) translate(74.525 17.1)"/><use xlink:href="#c" transform="matrix(1,0,0,1,517.6328973334014,302.5) translate(69.525 17.1)"/><use xlink:href="#d" transform="matrix(1,0,0,1,345,334.5) translate(45.05 17.1)"/><use xlink:href="#e" transform="matrix(1,0,0,1,517.6328973334014,334.5) translate(37.575 17.1)"/><use xlink:href="#f" transform="matrix(1,0,0,1,345,366.5) translate(47.525 17.1)"/><use xlink:href="#e" transform="matrix(1,0,0,1,517.6328973334014,366.5) translate(37.575 17.1)"/><use xlink:href="#g" transform="matrix(1,0,0,1,345,398.5) translate(57.05 17.1)"/><use xlink:href="#c" transform="matrix(1,0,0,1,517.6328973334014,398.5) translate(69.525 17.1)"/><use xlink:href="#h" transform="matrix(1,0,0,1,345,430.5) translate(60.55 17.1)"/><use xlink:href="#c" transform="matrix(1,0,0,1,517.6328973334014,430.5) translate(69.525 17.1)"/><use xlink:href="#i" transform="matrix(1,0,0,1,345,462.5) translate(62.05 17.1)"/><use xlink:href="#c" transform="matrix(1,0,0,1,517.6328973334014,462.5) translate(69.525 17.1)"/><use xlink:href="#j" transform="matrix(1,0,0,1,345,494.5) translate(54.55 17.1)"/><use xlink:href="#k" transform="matrix(1,0,0,1,517.6328973334014,494.5) translate(49.05 17.1)"/><use xlink:href="#l" transform="matrix(1,0,0,1,345,526.5) translate(15.049999999999997 17.1)"/><use xlink:href="#m" transform="matrix(1,0,0,1,517.6328973334014,526.5) translate(42.025 17.1)"/><use xlink:href="#n" transform="matrix(1,0,0,1,345,558.5) translate(37.1 17.1)"/><use xlink:href="#k" transform="matrix(1,0,0,1,517.6328973334014,558.5) translate(49.05 17.1)"/><use xlink:href="#o" transform="matrix(1,0,0,1,345,590.5) translate(47.05 17.1)"/><use xlink:href="#c" transform="matrix(1,0,0,1,517.6328973334014,590.5) translate(69.525 17.1)"/><use xlink:href="#p" transform="matrix(1,0,0,1,345,622.5) translate(57.5 17.1)"/><use xlink:href="#q" transform="matrix(1,0,0,1,517.6328973334014,622.5) translate(53.5 17.1)"/><use xlink:href="#r" transform="matrix(1,0,0,1,345,654.5) translate(42.05 17.1)"/><use xlink:href="#s" transform="matrix(1,0,0,1,517.6328973334014,654.5) translate(12.650000000000006 17.1)"/><use xlink:href="#t" transform="matrix(1,0,0,1,517.6328973334014,654.5) translate(100.5 17.1)"/><use xlink:href="#u" transform="matrix(1,0,0,1,345,686.5) translate(34.525 17.1)"/><use xlink:href="#c" transform="matrix(1,0,0,1,517.6328973334014,686.5) translate(69.525 17.1)"/><use xlink:href="#v" transform="matrix(1,0,0,1,345,718.5) translate(45 17.1)"/><use xlink:href="#k" transform="matrix(1,0,0,1,517.6328973334014,718.5) translate(49.05 17.1)"/><path d="M840 268a8 8 0 0 1 8-8h284a8 8 0 0 1 8 8v312a8 8 0 0 1-8 8H848a8 8 0 0 1-8-8z" fill="#edf5ff"/><path d="M840 268a8 8 0 0 1 8-8h284a8 8 0 0 1 8 8v312a8 8 0 0 1-8 8H848a8 8 0 0 1-8-8zM840 300h300M978.28 300v288" stroke="#1071e5" stroke-width="2" fill="none"/><use xlink:href="#w" transform="matrix(1,0,0,1,850,260) translate(118.025 23.6)"/><use xlink:href="#b" transform="matrix(1,0,0,1,845,302.5) translate(57.525 17.1)"/><use xlink:href="#c" transform="matrix(1,0,0,1,983.2772764561115,302.5) translate(66.525 17.1)"/><use xlink:href="#x" transform="matrix(1,0,0,1,845,334.5) translate(20.1 17.1)"/><use xlink:href="#k" transform="matrix(1,0,0,1,983.2772764561115,334.5) translate(46.05 17.1)"/><use xlink:href="#y" transform="matrix(1,0,0,1,845,366.5) translate(42.025 17.1)"/><use xlink:href="#k" transform="matrix(1,0,0,1,983.2772764561115,366.5) translate(46.05 17.1)"/><use xlink:href="#z" transform="matrix(1,0,0,1,845,398.5) translate(25.025 17.1)"/><use xlink:href="#A" transform="matrix(1,0,0,1,983.2772764561115,398.5) translate(35.05 17.1)"/><use xlink:href="#B" transform="matrix(1,0,0,1,845,430.5) translate(43.074999999999996 17.1)"/><use xlink:href="#k" transform="matrix(1,0,0,1,983.2772764561115,430.5) translate(46.05 17.1)"/><use xlink:href="#C" transform="matrix(1,0,0,1,845,462.5) translate(26.049999999999997 17.1)"/><use xlink:href="#k" transform="matrix(1,0,0,1,983.2772764561115,462.5) translate(46.05 17.1)"/><use xlink:href="#D" transform="matrix(1,0,0,1,845,494.5) translate(41.025 17.1)"/><use xlink:href="#E" transform="matrix(1,0,0,1,983.2772764561115,494.5) translate(59.025 17.1)"/><use xlink:href="#r" transform="matrix(1,0,0,1,845,526.5) translate(25.049999999999997 17.1)"/><use xlink:href="#s" transform="matrix(1,0,0,1,983.2772764561115,526.5) translate(9.650000000000006 17.1)"/><use xlink:href="#t" transform="matrix(1,0,0,1,983.2772764561115,526.5) translate(97.5 17.1)"/><use xlink:href="#F" transform="matrix(1,0,0,1,845,558.5) translate(22.549999999999997 17.1)"/><use xlink:href="#e" transform="matrix(1,0,0,1,983.2772764561115,558.5) translate(34.575 17.1)"/><path d="M840 648a8 8 0 0 1 8-8h284a8 8 0 0 1 8 8v216a8 8 0 0 1-8 8H848a8 8 0 0 1-8-8z" fill="#fff0f0"/><path d="M840 648a8 8 0 0 1 8-8h284a8 8 0 0 1 8 8v216a8 8 0 0 1-8 8H848a8 8 0 0 1-8-8zM840 680h300M978.28 680v192" stroke="#e81313" stroke-width="2" fill="none"/><use xlink:href="#G" transform="matrix(1,0,0,1,850,640) translate(88.57499999999999 23.6)"/><use xlink:href="#b" transform="matrix(1,0,0,1,845,682.5) translate(57.525 17.1)"/><use xlink:href="#c" transform="matrix(1,0,0,1,983.2772764561115,682.5) translate(66.525 17.1)"/><use xlink:href="#y" transform="matrix(1,0,0,1,845,714.5) translate(42.025 17.1)"/><use xlink:href="#k" transform="matrix(1,0,0,1,983.2772764561115,714.5) translate(46.05 17.1)"/><use xlink:href="#H" transform="matrix(1,0,0,1,845,746.5) translate(45 17.1)"/><use xlink:href="#k" transform="matrix(1,0,0,1,983.2772764561115,746.5) translate(46.05 17.1)"/><use xlink:href="#I" transform="matrix(1,0,0,1,845,778.5) translate(30.049999999999997 17.1)"/><use xlink:href="#k" transform="matrix(1,0,0,1,983.2772764561115,778.5) translate(46.05 17.1)"/><use xlink:href="#J" transform="matrix(1,0,0,1,845,810.5) translate(40.525 17.1)"/><use xlink:href="#k" transform="matrix(1,0,0,1,983.2772764561115,810.5) translate(46.05 17.1)"/><use xlink:href="#r" transform="matrix(1,0,0,1,845,842.5) translate(25.049999999999997 17.1)"/><use xlink:href="#s" transform="matrix(1,0,0,1,983.2772764561115,842.5) translate(9.650000000000006 17.1)"/><use xlink:href="#t" transform="matrix(1,0,0,1,983.2772764561115,842.5) translate(97.5 17.1)"/><path d="M340 788a8 8 0 0 1 8-8h304a8 8 0 0 1 8 8v120a8 8 0 0 1-8 8H348a8 8 0 0 1-8-8z" fill="#fcfcca"/><path d="M340 788a8 8 0 0 1 8-8h304a8 8 0 0 1 8 8v120a8 8 0 0 1-8 8H348a8 8 0 0 1-8-8zM340 820h320M510.68 820v96" stroke="#fcce14" stroke-width="2" fill="none"/><use xlink:href="#K" transform="matrix(1,0,0,1,350,780) translate(124.55 23.6)"/><use xlink:href="#b" transform="matrix(1,0,0,1,345,822.5) translate(73.525 17.1)"/><use xlink:href="#c" transform="matrix(1,0,0,1,515.6762257299445,822.5) translate(60.525 17.1)"/><use xlink:href="#y" transform="matrix(1,0,0,1,345,854.5) translate(58.025 17.1)"/><use xlink:href="#k" transform="matrix(1,0,0,1,515.6762257299445,854.5) translate(40.05 17.1)"/><use xlink:href="#L" transform="matrix(1,0,0,1,345,886.5) translate(64.025 17.1)"/><use xlink:href="#k" transform="matrix(1,0,0,1,515.6762257299445,886.5) translate(40.05 17.1)"/><path d="M681 835.92h28a12 12 0 0 0 12-12V456a12 12 0 0 0-12-12h-9.76" stroke="#fcce14" stroke-width="3" fill="none"/><path d="M681 845.92v-20M661 835.92h20" stroke="#fcce14" stroke-width="3" fill="#fff"/><path d="M681.67 434l20 10-20 10" stroke="#fcce14" stroke-width="3" fill="#fff" fill-opacity="0"/><path d="M681.67 444h20" stroke="#fcce14" stroke-width="3" fill="#fff"/><path d="M819 696h-27a12 12 0 0 1-12-12V488a12 12 0 0 0-12-12h-68.76" stroke="#e81313" stroke-width="3" fill="none"/><path d="M819 686v20M839 696h-20" stroke="#e81313" stroke-width="3" fill="#fff"/><path d="M681.67 466l20 10-20 10" stroke="#e81313" stroke-width="3" fill="#fff" fill-opacity="0"/><path d="M681.67 476h20" stroke="#e81313" stroke-width="3" fill="#fff"/><path d="M819 316h-27a12 12 0 0 0-12 12v72a12 12 0 0 1-12 12h-68.76" stroke="#1071e5" stroke-width="3" fill="none"/><path d="M819 306v20M839 316h-20" stroke="#1071e5" stroke-width="3" fill="#fff"/><path d="M681.67 402l20 10-20 10" stroke="#1071e5" stroke-width="3" fill="#fff" fill-opacity="0"/><path d="M681.67 412h20" stroke="#1071e5" stroke-width="3" fill="#fff"/><path d="M701 314.9h37a12 12 0 0 1 12 12v453.34a12 12 0 0 0 12 12h58.76" stroke="#008a0e" stroke-width="3" fill="none"/><path d="M701 324.9v-20M681 314.9h20" stroke="#008a0e" stroke-width="3" fill="#fff"/><path d="M838.33 802.24l-20-10 20-10" stroke="#008a0e" stroke-width="3" fill="#fff" fill-opacity="0"/><path d="M838.33 792.24h-20" stroke="#008a0e" stroke-width="3" fill="#fff"/><path d="M1260 548a8 8 0 0 1 8-8h284a8 8 0 0 1 8 8v88a8 8 0 0 1-8 8h-284a8 8 0 0 1-8-8z" fill="#fff0fb"/><path d="M1260 548a8 8 0 0 1 8-8h284a8 8 0 0 1 8 8v88a8 8 0 0 1-8 8h-284a8 8 0 0 1-8-8zM1260 580h300M1398.28 580v64" stroke="#d916a8" stroke-width="2" fill="none"/><use xlink:href="#M" transform="matrix(1,0,0,1,1270,540) translate(115.05 23.6)"/><use xlink:href="#g" transform="matrix(1,0,0,1,1265,582.5) translate(40.05 17.1)"/><use xlink:href="#c" transform="matrix(1,0,0,1,1403.2772764561114,582.5) translate(66.525 17.1)"/><use xlink:href="#N" transform="matrix(1,0,0,1,1265,614.5) translate(45.05 17.1)"/><use xlink:href="#c" transform="matrix(1,0,0,1,1403.2772764561114,614.5) translate(66.525 17.1)"/><path d="M1161 315.28h27a12 12 0 0 1 12 12v256.75a12 12 0 0 0 12 12h28.77" stroke="#1071e5" stroke-width="3" fill="none"/><path d="M1161 325.28v-20M1141 315.28h20" stroke="#1071e5" stroke-width="3" fill="#fff"/><path d="M1258.33 606.03l-20-10 20-10" stroke="#1071e5" stroke-width="3" fill="#fff" fill-opacity="0"/><path d="M1258.33 596.03h-20" stroke="#1071e5" stroke-width="3" fill="#fff"/><path d="M1161 695.6h27a12 12 0 0 0 12-12v-43.36a12 12 0 0 1 12-12h28.77" stroke="#e81313" stroke-width="3" fill="none"/><path d="M1161 705.6v-20M1141 695.6h20" stroke="#e81313" stroke-width="3" fill="#fff"/><path d="M1258.33 638.24l-20-10 20-10" stroke="#e81313" stroke-width="3" fill="#fff" fill-opacity="0"/><path d="M1258.33 628.24h-20" stroke="#e81313" stroke-width="3" fill="#fff"/><defs><path fill="#333" d="M141-36C126-15 110 5 73 4 37 3 15-17 15-53c-1-64 63-63 125-63 3-35-9-54-41-54-24 1-41 7-42 31l-33-3c5-37 33-52 76-52 45 0 72 20 72 64v82c-1 20 7 32 28 27v20c-31 9-61-2-59-35zM48-53c0 20 12 33 32 33 41-3 63-29 60-74-43 2-92-5-92 41" id="O"/><path fill="#333" d="M115-194c55 1 70 41 70 98S169 2 115 4C84 4 66-9 55-30l1 105H24l-1-265h31l2 30c10-21 28-34 59-34zm-8 174c40 0 45-34 45-75s-6-73-45-74c-42 0-51 32-51 76 0 43 10 73 51 73" id="P"/><path fill="#333" d="M100-194c62-1 85 37 85 99 1 63-27 99-86 99S16-35 15-95c0-66 28-99 85-99zM99-20c44 1 53-31 53-75 0-43-8-75-51-75s-53 32-53 75 10 74 51 75" id="Q"/><path fill="#333" d="M24-231v-30h32v30H24zM24 0v-190h32V0H24" id="R"/><path fill="#333" d="M117-194c89-4 53 116 60 194h-32v-121c0-31-8-49-39-48C34-167 62-67 57 0H25l-1-190h30c1 10-1 24 2 32 11-22 29-35 61-36" id="S"/><path fill="#333" d="M59-47c-2 24 18 29 38 22v24C64 9 27 4 27-40v-127H5v-23h24l9-43h21v43h35v23H59v120" id="T"/><path fill="#333" d="M210-169c-67 3-38 105-44 169h-31v-121c0-29-5-50-35-48C34-165 62-65 56 0H25l-1-190h30c1 10-1 24 2 32 10-44 99-50 107 0 11-21 27-35 58-36 85-2 47 119 55 194h-31v-121c0-29-5-49-35-48" id="U"/><path fill="#333" d="M100-194c63 0 86 42 84 106H49c0 40 14 67 53 68 26 1 43-12 49-29l28 8c-11 28-37 45-77 45C44 4 14-33 15-96c1-61 26-98 85-98zm52 81c6-60-76-77-97-28-3 7-6 17-6 28h103" id="V"/><path fill="#333" d="M135-143c-3-34-86-38-87 0 15 53 115 12 119 90S17 21 10-45l28-5c4 36 97 45 98 0-10-56-113-15-118-90-4-57 82-63 122-42 12 7 21 19 24 35" id="W"/><g id="a"><use transform="matrix(0.05,0,0,0.05,0,0)" xlink:href="#O"/><use transform="matrix(0.05,0,0,0.05,10,0)" xlink:href="#P"/><use transform="matrix(0.05,0,0,0.05,20,0)" xlink:href="#P"/><use transform="matrix(0.05,0,0,0.05,30,0)" xlink:href="#Q"/><use transform="matrix(0.05,0,0,0.05,40,0)" xlink:href="#R"/><use transform="matrix(0.05,0,0,0.05,43.95,0)" xlink:href="#S"/><use transform="matrix(0.05,0,0,0.05,53.95,0)" xlink:href="#T"/><use transform="matrix(0.05,0,0,0.05,58.95,0)" xlink:href="#U"/><use transform="matrix(0.05,0,0,0.05,73.9,0)" xlink:href="#V"/><use transform="matrix(0.05,0,0,0.05,83.9,0)" xlink:href="#S"/><use transform="matrix(0.05,0,0,0.05,93.9,0)" xlink:href="#T"/><use transform="matrix(0.05,0,0,0.05,98.9,0)" xlink:href="#W"/></g><path fill="#333" d="M85-194c31 0 48 13 60 33l-1-100h32l1 261h-30c-2-10 0-23-3-31C134-8 116 4 85 4 32 4 16-35 15-94c0-66 23-100 70-100zm9 24c-40 0-46 34-46 75 0 40 6 74 45 74 42 0 51-32 51-76 0-42-9-74-50-73" id="X"/><g id="b"><use transform="matrix(0.05,0,0,0.05,0,0)" xlink:href="#R"/><use transform="matrix(0.05,0,0,0.05,3.95,0)" xlink:href="#X"/></g><g id="c"><use transform="matrix(0.05,0,0,0.05,0,0)" xlink:href="#R"/><use transform="matrix(0.05,0,0,0.05,3.95,0)" xlink:href="#S"/><use transform="matrix(0.05,0,0,0.05,13.949999999999998,0)" xlink:href="#T"/></g><path fill="#333" d="M114-163C36-179 61-72 57 0H25l-1-190h30c1 12-1 29 2 39 6-27 23-49 58-41v29" id="Y"/><path fill="#333" d="M30-248c118-7 216 8 213 122C240-48 200 0 122 0H30v-248zM63-27c89 8 146-16 146-99s-60-101-146-95v194" id="Z"/><g id="d"><use transform="matrix(0.05,0,0,0.05,0,0)" xlink:href="#W"/><use transform="matrix(0.05,0,0,0.05,9,0)" xlink:href="#T"/><use transform="matrix(0.05,0,0,0.05,14,0)" xlink:href="#O"/><use transform="matrix(0.05,0,0,0.05,24,0)" xlink:href="#Y"/><use transform="matrix(0.05,0,0,0.05,29.950000000000003,0)" xlink:href="#T"/><use transform="matrix(0.05,0,0,0.05,34.95,0)" xlink:href="#Z"/><use transform="matrix(0.05,0,0,0.05,47.900000000000006,0)" xlink:href="#O"/><use transform="matrix(0.05,0,0,0.05,57.900000000000006,0)" xlink:href="#T"/><use transform="matrix(0.05,0,0,0.05,62.900000000000006,0)" xlink:href="#V"/></g><g id="e"><use transform="matrix(0.05,0,0,0.05,0,0)" xlink:href="#T"/><use transform="matrix(0.05,0,0,0.05,5,0)" xlink:href="#R"/><use transform="matrix(0.05,0,0,0.05,8.95,0)" xlink:href="#U"/><use transform="matrix(0.05,0,0,0.05,23.9,0)" xlink:href="#V"/><use transform="matrix(0.05,0,0,0.05,33.9,0)" xlink:href="#W"/><use transform="matrix(0.05,0,0,0.05,42.9,0)" xlink:href="#T"/><use transform="matrix(0.05,0,0,0.05,47.9,0)" xlink:href="#O"/><use transform="matrix(0.05,0,0,0.05,57.900000000000006,0)" xlink:href="#U"/><use transform="matrix(0.05,0,0,0.05,72.85,0)" xlink:href="#P"/></g><g id="f"><use transform="matrix(0.05,0,0,0.05,0,0)" xlink:href="#V"/><use transform="matrix(0.05,0,0,0.05,10,0)" xlink:href="#S"/><use transform="matrix(0.05,0,0,0.05,20,0)" xlink:href="#X"/><use transform="matrix(0.05,0,0,0.05,30,0)" xlink:href="#Z"/><use transform="matrix(0.05,0,0,0.05,42.95,0)" xlink:href="#O"/><use transform="matrix(0.05,0,0,0.05,52.95,0)" xlink:href="#T"/><use transform="matrix(0.05,0,0,0.05,57.95,0)" xlink:href="#V"/></g><path fill="#333" d="M84 4C-5 8 30-112 23-190h32v120c0 31 7 50 39 49 72-2 45-101 50-169h31l1 190h-30c-1-10 1-25-2-33-11 22-28 36-60 37" id="aa"/><path fill="#333" d="M-5 72V49h209v23H-5" id="ab"/><g id="g"><use transform="matrix(0.05,0,0,0.05,0,0)" xlink:href="#aa"/><use transform="matrix(0.05,0,0,0.05,10,0)" xlink:href="#W"/><use transform="matrix(0.05,0,0,0.05,19,0)" xlink:href="#Y"/><use transform="matrix(0.05,0,0,0.05,24.95,0)" xlink:href="#ab"/><use transform="matrix(0.05,0,0,0.05,34.95,0)" xlink:href="#R"/><use transform="matrix(0.05,0,0,0.05,38.900000000000006,0)" xlink:href="#X"/></g><path fill="#333" d="M96-169c-40 0-48 33-48 73s9 75 48 75c24 0 41-14 43-38l32 2c-6 37-31 61-74 61-59 0-76-41-82-99-10-93 101-131 147-64 4 7 5 14 7 22l-32 3c-4-21-16-35-41-35" id="ac"/><path fill="#333" d="M24 0v-261h32V0H24" id="ad"/><g id="h"><use transform="matrix(0.05,0,0,0.05,0,0)" xlink:href="#ac"/><use transform="matrix(0.05,0,0,0.05,9,0)" xlink:href="#ad"/><use transform="matrix(0.05,0,0,0.05,12.949999999999998,0)" xlink:href="#T"/><use transform="matrix(0.05,0,0,0.05,17.95,0)" xlink:href="#ab"/><use transform="matrix(0.05,0,0,0.05,27.950000000000003,0)" xlink:href="#R"/><use transform="matrix(0.05,0,0,0.05,31.899999999999995,0)" xlink:href="#X"/></g><g id="i"><use transform="matrix(0.05,0,0,0.05,0,0)" xlink:href="#Y"/><use transform="matrix(0.05,0,0,0.05,5.95,0)" xlink:href="#ac"/><use transform="matrix(0.05,0,0,0.05,14.949999999999998,0)" xlink:href="#ab"/><use transform="matrix(0.05,0,0,0.05,24.95,0)" xlink:href="#R"/><use transform="matrix(0.05,0,0,0.05,28.899999999999995,0)" xlink:href="#X"/></g><path fill="#333" d="M24-231v-30h32v30H24zM-9 49c24 4 33-6 33-30v-209h32V24c2 40-23 58-65 49V49" id="ae"/><g id="j"><use transform="matrix(0.05,0,0,0.05,0,0)" xlink:href="#P"/><use transform="matrix(0.05,0,0,0.05,10,0)" xlink:href="#Y"/><use transform="matrix(0.05,0,0,0.05,15.949999999999998,0)" xlink:href="#Q"/><use transform="matrix(0.05,0,0,0.05,25.950000000000003,0)" xlink:href="#ae"/><use transform="matrix(0.05,0,0,0.05,29.899999999999995,0)" xlink:href="#V"/><use transform="matrix(0.05,0,0,0.05,39.9,0)" xlink:href="#ac"/><use transform="matrix(0.05,0,0,0.05,48.9,0)" xlink:href="#T"/></g><path fill="#333" d="M108 0H70L1-190h34L89-25l56-165h34" id="af"/><path fill="#333" d="M106-169C34-169 62-67 57 0H25v-261h32l-1 103c12-21 28-36 61-36 89 0 53 116 60 194h-32v-121c2-32-8-49-39-48" id="ag"/><g id="k"><use transform="matrix(0.05,0,0,0.05,0,0)" xlink:href="#af"/><use transform="matrix(0.05,0,0,0.05,9,0)" xlink:href="#O"/><use transform="matrix(0.05,0,0,0.05,19,0)" xlink:href="#Y"/><use transform="matrix(0.05,0,0,0.05,24.95,0)" xlink:href="#ac"/><use transform="matrix(0.05,0,0,0.05,33.95,0)" xlink:href="#ag"/><use transform="matrix(0.05,0,0,0.05,43.95,0)" xlink:href="#O"/><use transform="matrix(0.05,0,0,0.05,53.95,0)" xlink:href="#Y"/></g><path fill="#333" d="M179-190L93 31C79 59 56 82 12 73V49c39 6 53-20 64-50L1-190h34L92-34l54-156h33" id="ah"/><g id="l"><use transform="matrix(0.05,0,0,0.05,0,0)" xlink:href="#O"/><use transform="matrix(0.05,0,0,0.05,10,0)" xlink:href="#P"/><use transform="matrix(0.05,0,0,0.05,20,0)" xlink:href="#P"/><use transform="matrix(0.05,0,0,0.05,30,0)" xlink:href="#R"/><use transform="matrix(0.05,0,0,0.05,33.95,0)" xlink:href="#S"/><use transform="matrix(0.05,0,0,0.05,43.95,0)" xlink:href="#T"/><use transform="matrix(0.05,0,0,0.05,48.95,0)" xlink:href="#U"/><use transform="matrix(0.05,0,0,0.05,63.900000000000006,0)" xlink:href="#V"/><use transform="matrix(0.05,0,0,0.05,73.9,0)" xlink:href="#S"/><use transform="matrix(0.05,0,0,0.05,83.9,0)" xlink:href="#T"/><use transform="matrix(0.05,0,0,0.05,88.9,0)" xlink:href="#ab"/><use transform="matrix(0.05,0,0,0.05,98.9,0)" xlink:href="#T"/><use transform="matrix(0.05,0,0,0.05,103.9,0)" xlink:href="#ah"/><use transform="matrix(0.05,0,0,0.05,112.9,0)" xlink:href="#P"/><use transform="matrix(0.05,0,0,0.05,122.9,0)" xlink:href="#V"/></g><path fill="#333" d="M127-220V0H93v-220H8v-28h204v28h-85" id="ai"/><g id="m"><use transform="matrix(0.05,0,0,0.05,0,0)" xlink:href="#ai"/><use transform="matrix(0.05,0,0,0.05,9.950000000000001,0)" xlink:href="#ah"/><use transform="matrix(0.05,0,0,0.05,18.950000000000003,0)" xlink:href="#P"/><use transform="matrix(0.05,0,0,0.05,28.950000000000003,0)" xlink:href="#V"/><use transform="matrix(0.05,0,0,0.05,38.95,0)" xlink:href="#ab"/><use transform="matrix(0.05,0,0,0.05,48.95,0)" xlink:href="#O"/><use transform="matrix(0.05,0,0,0.05,58.95,0)" xlink:href="#P"/><use transform="matrix(0.05,0,0,0.05,68.95,0)" xlink:href="#T"/></g><path fill="#333" d="M101-234c-31-9-42 10-38 44h38v23H63V0H32v-167H5v-23h27c-7-52 17-82 69-68v24" id="aj"/><g id="n"><use transform="matrix(0.05,0,0,0.05,0,0)" xlink:href="#ae"/><use transform="matrix(0.05,0,0,0.05,3.95,0)" xlink:href="#aa"/><use transform="matrix(0.05,0,0,0.05,13.949999999999998,0)" xlink:href="#W"/><use transform="matrix(0.05,0,0,0.05,22.95,0)" xlink:href="#T"/><use transform="matrix(0.05,0,0,0.05,27.950000000000003,0)" xlink:href="#R"/><use transform="matrix(0.05,0,0,0.05,31.899999999999995,0)" xlink:href="#aj"/><use transform="matrix(0.05,0,0,0.05,36.9,0)" xlink:href="#R"/><use transform="matrix(0.05,0,0,0.05,40.85,0)" xlink:href="#ac"/><use transform="matrix(0.05,0,0,0.05,49.85,0)" xlink:href="#O"/><use transform="matrix(0.05,0,0,0.05,59.85,0)" xlink:href="#T"/><use transform="matrix(0.05,0,0,0.05,64.85,0)" xlink:href="#R"/><use transform="matrix(0.05,0,0,0.05,68.8,0)" xlink:href="#Q"/><use transform="matrix(0.05,0,0,0.05,78.8,0)" xlink:href="#S"/></g><g id="o"><use transform="matrix(0.05,0,0,0.05,0,0)" xlink:href="#P"/><use transform="matrix(0.05,0,0,0.05,10,0)" xlink:href="#V"/><use transform="matrix(0.05,0,0,0.05,20,0)" xlink:href="#ah"/><use transform="matrix(0.05,0,0,0.05,29,0)" xlink:href="#ab"/><use transform="matrix(0.05,0,0,0.05,39,0)" xlink:href="#Y"/><use transform="matrix(0.05,0,0,0.05,44.95,0)" xlink:href="#O"/><use transform="matrix(0.05,0,0,0.05,54.95,0)" xlink:href="#R"/><use transform="matrix(0.05,0,0,0.05,58.900000000000006,0)" xlink:href="#X"/></g><g id="p"><use transform="matrix(0.05,0,0,0.05,0,0)" xlink:href="#W"/><use transform="matrix(0.05,0,0,0.05,9,0)" xlink:href="#T"/><use transform="matrix(0.05,0,0,0.05,14,0)" xlink:href="#O"/><use transform="matrix(0.05,0,0,0.05,24,0)" xlink:href="#T"/><use transform="matrix(0.05,0,0,0.05,29,0)" xlink:href="#aa"/><use transform="matrix(0.05,0,0,0.05,39,0)" xlink:href="#W"/></g><path fill="#333" d="M185-189c-5-48-123-54-124 2 14 75 158 14 163 119 3 78-121 87-175 55-17-10-28-26-33-46l33-7c5 56 141 63 141-1 0-78-155-14-162-118-5-82 145-84 179-34 5 7 8 16 11 25" id="ak"/><g id="q"><use transform="matrix(0.05,0,0,0.05,0,0)" xlink:href="#ak"/><use transform="matrix(0.05,0,0,0.05,12,0)" xlink:href="#T"/><use transform="matrix(0.05,0,0,0.05,17,0)" xlink:href="#O"/><use transform="matrix(0.05,0,0,0.05,27,0)" xlink:href="#T"/><use transform="matrix(0.05,0,0,0.05,32,0)" xlink:href="#aa"/><use transform="matrix(0.05,0,0,0.05,42,0)" xlink:href="#W"/></g><g id="r"><use transform="matrix(0.05,0,0,0.05,0,0)" xlink:href="#R"/><use transform="matrix(0.05,0,0,0.05,3.95,0)" xlink:href="#S"/><use transform="matrix(0.05,0,0,0.05,13.949999999999998,0)" xlink:href="#W"/><use transform="matrix(0.05,0,0,0.05,22.95,0)" xlink:href="#V"/><use transform="matrix(0.05,0,0,0.05,32.95,0)" xlink:href="#Y"/><use transform="matrix(0.05,0,0,0.05,38.900000000000006,0)" xlink:href="#T"/><use transform="matrix(0.05,0,0,0.05,43.900000000000006,0)" xlink:href="#X"/><use transform="matrix(0.05,0,0,0.05,53.900000000000006,0)" xlink:href="#O"/><use transform="matrix(0.05,0,0,0.05,63.900000000000006,0)" xlink:href="#T"/><use transform="matrix(0.05,0,0,0.05,68.9,0)" xlink:href="#V"/></g><g id="s"><use transform="matrix(0.05,0,0,0.05,0,0)" xlink:href="#T"/><use transform="matrix(0.05,0,0,0.05,5,0)" xlink:href="#R"/><use transform="matrix(0.05,0,0,0.05,8.95,0)" xlink:href="#U"/><use transform="matrix(0.05,0,0,0.05,23.9,0)" xlink:href="#V"/><use transform="matrix(0.05,0,0,0.05,33.9,0)" xlink:href="#W"/><use transform="matrix(0.05,0,0,0.05,42.9,0)" xlink:href="#T"/><use transform="matrix(0.05,0,0,0.05,47.9,0)" xlink:href="#O"/><use transform="matrix(0.05,0,0,0.05,57.900000000000006,0)" xlink:href="#U"/><use transform="matrix(0.05,0,0,0.05,72.85,0)" xlink:href="#P"/></g><path fill="#333" d="M206 0h-36l-40-164L89 0H53L-1-190h32L70-26l43-164h34l41 164 42-164h31" id="al"/><path fill="#333" d="M87 75C49 33 22-17 22-94c0-76 28-126 65-167h31c-38 41-64 92-64 168S80 34 118 75H87" id="am"/><path fill="#333" d="M33-261c38 41 65 92 65 168S71 34 33 75H2C39 34 66-17 66-93S39-220 2-261h31" id="an"/><g id="t"><use transform="matrix(0.05,0,0,0.05,0,0)" xlink:href="#S"/><use transform="matrix(0.05,0,0,0.05,10,0)" xlink:href="#Q"/><use transform="matrix(0.05,0,0,0.05,20,0)" xlink:href="#al"/><use transform="matrix(0.05,0,0,0.05,32.95,0)" xlink:href="#am"/><use transform="matrix(0.05,0,0,0.05,38.900000000000006,0)" xlink:href="#an"/></g><g id="u"><use transform="matrix(0.05,0,0,0.05,0,0)" xlink:href="#O"/><use transform="matrix(0.05,0,0,0.05,10,0)" xlink:href="#P"/><use transform="matrix(0.05,0,0,0.05,20,0)" xlink:href="#T"/><use transform="matrix(0.05,0,0,0.05,25,0)" xlink:href="#ab"/><use transform="matrix(0.05,0,0,0.05,35,0)" xlink:href="#aa"/><use transform="matrix(0.05,0,0,0.05,45,0)" xlink:href="#P"/><use transform="matrix(0.05,0,0,0.05,55,0)" xlink:href="#X"/><use transform="matrix(0.05,0,0,0.05,65,0)" xlink:href="#T"/><use transform="matrix(0.05,0,0,0.05,70,0)" xlink:href="#ab"/><use transform="matrix(0.05,0,0,0.05,80,0)" xlink:href="#R"/><use transform="matrix(0.05,0,0,0.05,83.95,0)" xlink:href="#X"/></g><path fill="#333" d="M115-194c53 0 69 39 70 98 0 66-23 100-70 100C84 3 66-7 56-30L54 0H23l1-261h32v101c10-23 28-34 59-34zm-8 174c40 0 45-34 45-75 0-40-5-75-45-74-42 0-51 32-51 76 0 43 10 73 51 73" id="ao"/><path fill="#333" d="M143 0L79-87 56-68V0H24v-261h32v163l83-92h37l-77 82L181 0h-38" id="ap"/><g id="v"><use transform="matrix(0.05,0,0,0.05,0,0)" xlink:href="#aj"/><use transform="matrix(0.05,0,0,0.05,5,0)" xlink:href="#V"/><use transform="matrix(0.05,0,0,0.05,15,0)" xlink:href="#V"/><use transform="matrix(0.05,0,0,0.05,25,0)" xlink:href="#X"/><use transform="matrix(0.05,0,0,0.05,35,0)" xlink:href="#ao"/><use transform="matrix(0.05,0,0,0.05,45,0)" xlink:href="#O"/><use transform="matrix(0.05,0,0,0.05,55,0)" xlink:href="#ac"/><use transform="matrix(0.05,0,0,0.05,64,0)" xlink:href="#ap"/></g><g id="w"><use transform="matrix(0.05,0,0,0.05,0,0)" xlink:href="#aa"/><use transform="matrix(0.05,0,0,0.05,10,0)" xlink:href="#W"/><use transform="matrix(0.05,0,0,0.05,19,0)" xlink:href="#V"/><use transform="matrix(0.05,0,0,0.05,29,0)" xlink:href="#Y"/><use transform="matrix(0.05,0,0,0.05,34.95,0)" xlink:href="#W"/></g><path fill="#333" d="M177-190C167-65 218 103 67 71c-23-6-38-20-44-43l32-5c15 47 100 32 89-28v-30C133-14 115 1 83 1 29 1 15-40 15-95c0-56 16-97 71-98 29-1 48 16 59 35 1-10 0-23 2-32h30zM94-22c36 0 50-32 50-73 0-42-14-75-50-75-39 0-46 34-46 75s6 73 46 73" id="aq"/><g id="x"><use transform="matrix(0.05,0,0,0.05,0,0)" xlink:href="#Y"/><use transform="matrix(0.05,0,0,0.05,5.95,0)" xlink:href="#V"/><use transform="matrix(0.05,0,0,0.05,15.949999999999998,0)" xlink:href="#aq"/><use transform="matrix(0.05,0,0,0.05,25.950000000000003,0)" xlink:href="#R"/><use transform="matrix(0.05,0,0,0.05,29.899999999999995,0)" xlink:href="#W"/><use transform="matrix(0.05,0,0,0.05,38.9,0)" xlink:href="#T"/><use transform="matrix(0.05,0,0,0.05,43.9,0)" xlink:href="#Y"/><use transform="matrix(0.05,0,0,0.05,49.85,0)" xlink:href="#O"/><use transform="matrix(0.05,0,0,0.05,59.85,0)" xlink:href="#T"/><use transform="matrix(0.05,0,0,0.05,64.85,0)" xlink:href="#R"/><use transform="matrix(0.05,0,0,0.05,68.8,0)" xlink:href="#Q"/><use transform="matrix(0.05,0,0,0.05,78.8,0)" xlink:href="#S"/></g><g id="y"><use transform="matrix(0.05,0,0,0.05,0,0)" xlink:href="#S"/><use transform="matrix(0.05,0,0,0.05,10,0)" xlink:href="#O"/><use transform="matrix(0.05,0,0,0.05,20,0)" xlink:href="#U"/><use transform="matrix(0.05,0,0,0.05,34.95,0)" xlink:href="#V"/></g><g id="z"><use transform="matrix(0.05,0,0,0.05,0,0)" xlink:href="#aa"/><use transform="matrix(0.05,0,0,0.05,10,0)" xlink:href="#W"/><use transform="matrix(0.05,0,0,0.05,19,0)" xlink:href="#V"/><use transform="matrix(0.05,0,0,0.05,29,0)" xlink:href="#Y"/><use transform="matrix(0.05,0,0,0.05,34.95,0)" xlink:href="#ab"/><use transform="matrix(0.05,0,0,0.05,44.95,0)" xlink:href="#T"/><use transform="matrix(0.05,0,0,0.05,49.95,0)" xlink:href="#ah"/><use transform="matrix(0.05,0,0,0.05,58.95,0)" xlink:href="#P"/><use transform="matrix(0.05,0,0,0.05,68.95,0)" xlink:href="#V"/></g><path fill="#333" d="M232-93c-1 65-40 97-104 97C67 4 28-28 28-90v-158h33c8 89-33 224 67 224 102 0 64-133 71-224h33v155" id="ar"/><g id="A"><use transform="matrix(0.05,0,0,0.05,0,0)" xlink:href="#ar"/><use transform="matrix(0.05,0,0,0.05,12.950000000000001,0)" xlink:href="#W"/><use transform="matrix(0.05,0,0,0.05,21.950000000000003,0)" xlink:href="#V"/><use transform="matrix(0.05,0,0,0.05,31.950000000000003,0)" xlink:href="#Y"/><use transform="matrix(0.05,0,0,0.05,37.900000000000006,0)" xlink:href="#ab"/><use transform="matrix(0.05,0,0,0.05,47.900000000000006,0)" xlink:href="#T"/><use transform="matrix(0.05,0,0,0.05,52.900000000000006,0)" xlink:href="#ah"/><use transform="matrix(0.05,0,0,0.05,61.900000000000006,0)" xlink:href="#P"/><use transform="matrix(0.05,0,0,0.05,71.9,0)" xlink:href="#V"/></g><g id="B"><use transform="matrix(0.05,0,0,0.05,0,0)" xlink:href="#V"/><use transform="matrix(0.05,0,0,0.05,10,0)" xlink:href="#U"/><use transform="matrix(0.05,0,0,0.05,24.950000000000003,0)" xlink:href="#O"/><use transform="matrix(0.05,0,0,0.05,34.95,0)" xlink:href="#R"/><use transform="matrix(0.05,0,0,0.05,38.900000000000006,0)" xlink:href="#ad"/></g><g id="C"><use transform="matrix(0.05,0,0,0.05,0,0)" xlink:href="#P"/><use transform="matrix(0.05,0,0,0.05,10,0)" xlink:href="#O"/><use transform="matrix(0.05,0,0,0.05,20,0)" xlink:href="#W"/><use transform="matrix(0.05,0,0,0.05,29,0)" xlink:href="#W"/><use transform="matrix(0.05,0,0,0.05,38,0)" xlink:href="#al"/><use transform="matrix(0.05,0,0,0.05,50.95,0)" xlink:href="#Q"/><use transform="matrix(0.05,0,0,0.05,60.95,0)" xlink:href="#Y"/><use transform="matrix(0.05,0,0,0.05,66.9,0)" xlink:href="#X"/></g><g id="D"><use transform="matrix(0.05,0,0,0.05,0,0)" xlink:href="#O"/><use transform="matrix(0.05,0,0,0.05,10,0)" xlink:href="#ac"/><use transform="matrix(0.05,0,0,0.05,19,0)" xlink:href="#T"/><use transform="matrix(0.05,0,0,0.05,24,0)" xlink:href="#R"/><use transform="matrix(0.05,0,0,0.05,27.950000000000003,0)" xlink:href="#af"/><use transform="matrix(0.05,0,0,0.05,36.95,0)" xlink:href="#V"/></g><g id="E"><use transform="matrix(0.05,0,0,0.05,0,0)" xlink:href="#ao"/><use transform="matrix(0.05,0,0,0.05,10,0)" xlink:href="#Q"/><use transform="matrix(0.05,0,0,0.05,20,0)" xlink:href="#Q"/><use transform="matrix(0.05,0,0,0.05,30,0)" xlink:href="#ad"/></g><path fill="#333" d="M141 0L90-78 38 0H4l68-98-65-92h35l48 74 47-74h35l-64 92 68 98h-35" id="as"/><g id="F"><use transform="matrix(0.05,0,0,0.05,0,0)" xlink:href="#V"/><use transform="matrix(0.05,0,0,0.05,10,0)" xlink:href="#as"/><use transform="matrix(0.05,0,0,0.05,19,0)" xlink:href="#P"/><use transform="matrix(0.05,0,0,0.05,29,0)" xlink:href="#R"/><use transform="matrix(0.05,0,0,0.05,32.95,0)" xlink:href="#Y"/><use transform="matrix(0.05,0,0,0.05,38.900000000000006,0)" xlink:href="#V"/><use transform="matrix(0.05,0,0,0.05,48.900000000000006,0)" xlink:href="#X"/><use transform="matrix(0.05,0,0,0.05,58.900000000000006,0)" xlink:href="#O"/><use transform="matrix(0.05,0,0,0.05,68.9,0)" xlink:href="#T"/><use transform="matrix(0.05,0,0,0.05,73.9,0)" xlink:href="#V"/></g><g id="G"><use transform="matrix(0.05,0,0,0.05,0,0)" xlink:href="#Y"/><use transform="matrix(0.05,0,0,0.05,5.95,0)" xlink:href="#V"/><use transform="matrix(0.05,0,0,0.05,15.949999999999998,0)" xlink:href="#W"/><use transform="matrix(0.05,0,0,0.05,24.95,0)" xlink:href="#aa"/><use transform="matrix(0.05,0,0,0.05,34.95,0)" xlink:href="#ad"/><use transform="matrix(0.05,0,0,0.05,38.900000000000006,0)" xlink:href="#T"/><use transform="matrix(0.05,0,0,0.05,43.900000000000006,0)" xlink:href="#ac"/><use transform="matrix(0.05,0,0,0.05,52.900000000000006,0)" xlink:href="#V"/><use transform="matrix(0.05,0,0,0.05,62.900000000000006,0)" xlink:href="#S"/><use transform="matrix(0.05,0,0,0.05,72.9,0)" xlink:href="#T"/><use transform="matrix(0.05,0,0,0.05,77.9,0)" xlink:href="#V"/><use transform="matrix(0.05,0,0,0.05,87.9,0)" xlink:href="#Y"/><use transform="matrix(0.05,0,0,0.05,93.85000000000001,0)" xlink:href="#W"/></g><g id="H"><use transform="matrix(0.05,0,0,0.05,0,0)" xlink:href="#ac"/><use transform="matrix(0.05,0,0,0.05,9,0)" xlink:href="#Q"/><use transform="matrix(0.05,0,0,0.05,19,0)" xlink:href="#X"/><use transform="matrix(0.05,0,0,0.05,29,0)" xlink:href="#V"/></g><g id="I"><use transform="matrix(0.05,0,0,0.05,0,0)" xlink:href="#O"/><use transform="matrix(0.05,0,0,0.05,10,0)" xlink:href="#ac"/><use transform="matrix(0.05,0,0,0.05,19,0)" xlink:href="#Y"/><use transform="matrix(0.05,0,0,0.05,24.95,0)" xlink:href="#Q"/><use transform="matrix(0.05,0,0,0.05,34.95,0)" xlink:href="#S"/><use transform="matrix(0.05,0,0,0.05,44.95,0)" xlink:href="#ah"/><use transform="matrix(0.05,0,0,0.05,53.95,0)" xlink:href="#U"/></g><g id="J"><use transform="matrix(0.05,0,0,0.05,0,0)" xlink:href="#aq"/><use transform="matrix(0.05,0,0,0.05,10,0)" xlink:href="#W"/><use transform="matrix(0.05,0,0,0.05,19,0)" xlink:href="#T"/><use transform="matrix(0.05,0,0,0.05,24,0)" xlink:href="#ab"/><use transform="matrix(0.05,0,0,0.05,34,0)" xlink:href="#R"/><use transform="matrix(0.05,0,0,0.05,37.95,0)" xlink:href="#X"/></g><g id="K"><use transform="matrix(0.05,0,0,0.05,0,0)" xlink:href="#ac"/><use transform="matrix(0.05,0,0,0.05,9,0)" xlink:href="#ad"/><use transform="matrix(0.05,0,0,0.05,12.949999999999998,0)" xlink:href="#R"/><use transform="matrix(0.05,0,0,0.05,16.9,0)" xlink:href="#V"/><use transform="matrix(0.05,0,0,0.05,26.899999999999995,0)" xlink:href="#S"/><use transform="matrix(0.05,0,0,0.05,36.9,0)" xlink:href="#T"/><use transform="matrix(0.05,0,0,0.05,41.9,0)" xlink:href="#W"/></g><g id="L"><use transform="matrix(0.05,0,0,0.05,0,0)" xlink:href="#ac"/><use transform="matrix(0.05,0,0,0.05,9,0)" xlink:href="#S"/><use transform="matrix(0.05,0,0,0.05,19,0)" xlink:href="#P"/><use transform="matrix(0.05,0,0,0.05,29,0)" xlink:href="#ae"/></g><g id="M"><use transform="matrix(0.05,0,0,0.05,0,0)" xlink:href="#aa"/><use transform="matrix(0.05,0,0,0.05,10,0)" xlink:href="#W"/><use transform="matrix(0.05,0,0,0.05,19,0)" xlink:href="#Y"/><use transform="matrix(0.05,0,0,0.05,24.95,0)" xlink:href="#ab"/><use transform="matrix(0.05,0,0,0.05,34.95,0)" xlink:href="#ac"/><use transform="matrix(0.05,0,0,0.05,43.95,0)" xlink:href="#Y"/></g><g id="N"><use transform="matrix(0.05,0,0,0.05,0,0)" xlink:href="#ac"/><use transform="matrix(0.05,0,0,0.05,9,0)" xlink:href="#Y"/><use transform="matrix(0.05,0,0,0.05,14.949999999999998,0)" xlink:href="#ab"/><use transform="matrix(0.05,0,0,0.05,24.95,0)" xlink:href="#R"/><use transform="matrix(0.05,0,0,0.05,28.899999999999995,0)" xlink:href="#X"/></g></defs></g></svg>